<svg width="80" height="81" viewBox="0 0 80 81" fill="none" xmlns="http://www.w3.org/2000/svg">
<path d="M21.9661 32.7445C21.9661 28.9855 24.8502 25.9371 28.4068 25.9371H1.35593V36.8289H23.2542L23.2671 36.8071C22.4607 35.6703 21.9661 34.2748 21.9661 32.7445Z" fill="#C7A17A"/>
<rect x="50.3051" y="24.5757" width="28.339" height="13.6147" fill="#C7A17A"/>
<path fill-rule="evenodd" clip-rule="evenodd" d="M56.3432 9.13846C52.9084 3.69828 46.8748 0.0693359 40 0.0693359C33.1252 0.0693359 27.0903 3.69828 23.6568 9.13846H0V19.5032V45.415V80.3959H23.2258H56.7742H80V45.415V19.5032V9.13846H56.3432ZM40 2.66051C49.249 2.66051 56.7742 10.2164 56.7742 19.5032V22.0944H77.4193V42.8238H56.7742H47.2826C49.92 40.6848 51.6129 37.416 51.6129 33.7547V22.0944H28.3871V24.6855C24.1174 24.6855 20.6452 28.172 20.6452 32.4591C20.6452 36.7462 24.1174 40.2326 28.3871 40.2326H30.351C31.0052 41.2121 31.8052 42.084 32.7174 42.8238H23.2258H2.58065V22.0944H23.2258V19.5032C23.2258 10.2164 30.751 2.66051 40 2.66051ZM25.8065 45.415V50.5973H54.1936V45.415H25.8065ZM30.9677 33.7547V24.6855H49.0323V33.7547C49.0323 38.7556 44.9806 42.8238 40 42.8238C35.0194 42.8238 30.9677 38.7556 30.9677 33.7547ZM28.3871 37.6414H29.0645C28.6335 36.4236 28.3871 35.1189 28.3871 33.7547V27.2767C25.5406 27.2767 23.2258 29.601 23.2258 32.4591C23.2258 35.3171 25.5406 37.6414 28.3871 37.6414ZM2.58065 16.912H15.4839V14.3208H2.58065V11.7296H22.2723C21.9084 12.564 21.6103 13.4307 21.3652 14.3208H18.0645V16.912H20.8374C20.7239 17.7619 20.6452 18.6222 20.6452 19.5032H2.58065V16.912ZM2.58065 45.415V77.8047H23.2258V45.415H2.58065ZM25.8065 53.1885H38.7097V77.8047H25.8065V53.1885ZM41.2903 53.1885V77.8047H54.1935V53.1885H41.2903ZM77.4194 77.8047H56.7742V45.415H77.4194V77.8047ZM59.1626 16.912C59.2761 17.7619 59.3548 18.6222 59.3548 19.5032H77.4194V16.912H64.5161V14.3208H77.4194V11.7296H57.7277C58.0916 12.564 58.3884 13.4307 58.6348 14.3208H61.9355V16.912H59.1626Z" fill="#232C38"/>
<path d="M41.2903 19.5031H43.871V17.2177C43.871 15.9247 44.5871 14.7626 45.7381 14.1847C47.7703 13.1638 49.0322 11.1142 49.0322 8.83396V6.54724H46.4516V8.83266C46.4516 10.1257 45.7355 11.2878 44.5845 11.8656C42.5522 12.8866 41.2903 14.9362 41.2903 17.2164V19.5031Z" fill="#232C38"/>
<path d="M36.129 17.2177C36.129 15.9247 36.8452 14.7626 37.9961 14.1847C40.0284 13.1638 41.2903 11.1142 41.2903 8.83396V6.54724H38.7097V8.83266C38.7097 10.1257 37.9935 11.2878 36.8426 11.8656C34.8103 12.8866 33.5484 14.9362 33.5484 17.2164V19.5031H36.129V17.2177Z" fill="#232C38"/>
<rect x="33.5484" y="60.962" width="2.58065" height="5.18236" fill="#232C38"/>
<rect x="43.871" y="60.962" width="2.58065" height="5.18236" fill="#232C38"/>
</svg>
