<svg width="80" height="81" viewBox="0 0 80 81" fill="none" xmlns="http://www.w3.org/2000/svg">
<rect x="2" y="49.1577" width="41.2203" height="26.2177" fill="#C7A17A"/>
<path d="M43.2204 57.0231H78V28.1836H39.356V36.0489H43.2204V57.0231Z" fill="#C7A17A"/>
<path fill-rule="evenodd" clip-rule="evenodd" d="M80 9.13846V3.9561C80 1.8132 78.2632 0.0693359 76.129 0.0693359H40C37.8658 0.0693359 36.129 1.8132 36.129 3.9561V9.13846C36.129 10.2825 36.6335 11.3021 37.4194 12.0147V33.7547H3.87097C1.73677 33.7547 0 35.4985 0 37.6414V73.9179C0 77.4899 2.89419 80.3959 6.45161 80.3959H37.4194C37.8606 80.3959 38.2929 80.3505 38.7097 80.265V80.3959H76.129C78.2632 80.3959 80 78.652 80 76.5091V71.3267C80 70.1827 79.4955 69.1631 78.7097 68.4505V12.0147C79.4955 11.3021 80 10.2825 80 9.13846ZM77.4194 3.9561V9.13846C77.4194 9.85233 76.84 10.434 76.129 10.434H70.9677V2.66051H76.129C76.84 2.66051 77.4194 3.24223 77.4194 3.9561ZM47.7419 2.66051V10.434H52.9032V2.66051H47.7419ZM55.4839 2.66051H60.6452V10.434H55.4839V2.66051ZM68.3871 2.66051H63.2258V10.434H68.3871V2.66051ZM38.7097 3.9561C38.7097 3.24223 39.289 2.66051 40 2.66051H45.1613V10.434H40C39.289 10.434 38.7097 9.85233 38.7097 9.13846V3.9561ZM2.58065 73.9179C2.58065 76.0608 4.31742 77.8047 6.45161 77.8047H37.4194C39.5536 77.8047 41.2903 76.0608 41.2903 73.9179V44.1194H38.7097V41.5282H41.2903V37.6414C41.2903 36.9276 40.711 36.3458 40 36.3458H3.87097C3.16 36.3458 2.58065 36.9276 2.58065 37.6414V41.5282H36.129V44.1194H2.58065V73.9179ZM77.4194 76.5091C77.4194 77.2243 76.84 77.8047 76.129 77.8047H42.5471C43.3665 76.719 43.871 75.3819 43.871 73.9179V70.0312H76.129C76.84 70.0312 77.4194 70.6116 77.4194 71.3267V76.5091ZM43.871 67.44H76.129V13.0252H40V33.7547C42.1342 33.7547 43.871 35.4985 43.871 37.6414V67.44Z" fill="#151D28"/>
<path fill-rule="evenodd" clip-rule="evenodd" d="M55.52 51.8761C58.5006 51.8761 61.7871 50.5041 64.3961 47.8857C68.8839 43.3796 69.6942 36.8628 66.2026 33.357C62.7109 29.8511 56.2206 30.6647 51.7342 35.1708C47.2477 39.6768 46.4374 46.1937 49.9277 49.6982C51.3884 51.1661 53.3742 51.8761 55.52 51.8761ZM62.5716 46.0537C59.529 49.1074 55.4361 50.1154 52.7948 48.6514L65.16 36.2358C66.6155 38.8891 65.6142 42.9974 62.5716 46.0537ZM60.5935 33.7417C58.3006 33.7417 55.6761 34.8754 53.5574 37.0027C50.5148 40.059 49.5135 44.1673 50.969 46.8194L63.3187 34.4193C62.5174 33.9762 61.5922 33.7417 60.5935 33.7417Z" fill="#151D28"/>
<path fill-rule="evenodd" clip-rule="evenodd" d="M15.6039 54.6045C11.1161 59.1106 10.3058 65.6274 13.7974 69.1333C15.2581 70.6012 17.2439 71.3112 19.3897 71.3112C22.3703 71.3112 25.6568 69.9391 28.2658 67.3208C32.7536 62.8147 33.5639 56.2979 30.0723 52.792C26.582 49.2836 20.0916 50.0985 15.6039 54.6045ZM17.4284 56.4365C19.5471 54.3104 22.1729 53.1768 24.4645 53.1768C25.4632 53.1768 26.3884 53.4113 27.1897 53.8544L14.84 66.2545C13.3845 63.6011 14.3858 59.4928 17.4284 56.4365ZM16.6658 68.0851C19.3071 69.5492 23.4 68.5412 26.4426 65.4875C29.4852 62.4312 30.4865 58.3229 29.031 55.6695L16.6658 68.0851Z" fill="#151D28"/>
</svg>
