<svg width="75" height="81" viewBox="0 0 75 81" fill="none" xmlns="http://www.w3.org/2000/svg">
<path d="M9 18.1428V18.8996C9 24.6857 12.0033 30.0751 16.9719 33.204H42.0281C46.9967 30.0751 50 24.6857 50 18.8996V18.1428H9Z" fill="#C7A17A"/>
<path fill-rule="evenodd" clip-rule="evenodd" d="M67.2574 0.0693359C71.5271 0.0693359 74.9994 3.55577 74.9994 7.84287C74.9994 11.2205 72.8406 14.0928 69.8381 15.163V80.3946H5.32193C2.47548 80.3946 0.160645 78.0703 0.160645 75.2122C0.160645 72.3541 2.47548 70.0299 5.32193 70.0299H15.7877C14.6445 68.9079 13.8032 67.4827 13.3787 65.8866L9.73355 64.6687C7.09484 63.7851 5.32193 61.3144 5.32193 58.5224V50.4457C5.32193 47.6537 7.09355 45.1843 9.73226 44.3008L13.0639 43.1865V42.8238C13.0639 42.2524 13.1942 41.7135 13.4161 41.225C11.7077 40.5785 10.4832 38.9318 10.4832 36.9936C10.4832 34.9323 11.8677 33.2079 13.7452 32.6586C10.0394 29.1372 7.90258 24.2347 7.90258 18.9888V15.6164C3.6329 15.6164 0.160645 12.13 0.160645 7.84287C0.160645 3.55577 3.6329 0.0693359 7.90258 0.0693359H24.6768H37.58H54.3542H67.2574ZM38.8703 3.9561C38.8703 3.24223 38.291 2.66051 37.58 2.66051H24.6768C23.9658 2.66051 23.3865 3.24223 23.3865 3.9561C23.3865 4.66997 23.9658 5.25169 24.6768 5.25169H37.58C38.291 5.25169 38.8703 4.66997 38.8703 3.9561ZM2.74129 7.84287C2.74129 4.9848 5.05613 2.66051 7.90258 2.66051H21.0432C20.8987 3.06733 20.8058 3.50006 20.8058 3.9561C20.8058 6.09901 22.5426 7.84287 24.6768 7.84287H37.58C39.7142 7.84287 41.451 6.09901 41.451 3.9561C41.451 3.50006 41.3581 3.06733 41.2136 2.66051H54.3542C57.2006 2.66051 59.5155 4.9848 59.5155 7.84287C59.5155 10.7009 57.2006 13.0252 54.3542 13.0252H7.90258C5.05613 13.0252 2.74129 10.7009 2.74129 7.84287ZM54.3542 33.7547H59.5155V28.5723H54.3542V33.7547ZM54.3542 44.1194H59.5155V49.3017H54.3542V44.1194ZM54.3542 41.5282H59.5155V36.3458H54.3542V41.5282ZM51.7735 25.9811V33.7547V44.1194V51.8929H59.5155V70.0312H43.8884C45.5658 68.3832 46.6123 66.09 46.6123 63.5532V42.8238C46.6123 42.2524 46.4819 41.7135 46.26 41.225C47.9684 40.5772 49.1929 38.9318 49.1929 36.9936C49.1929 34.9336 47.8084 33.2092 45.931 32.6586C49.6368 29.1359 51.7735 24.2334 51.7735 18.9888V15.6164H54.3542H59.5155V25.9811H51.7735ZM49.1929 18.9888V15.6164H10.4832V18.9888C10.4832 20.0473 10.6148 21.0799 10.8097 22.0944H16.9348C20.4923 22.0944 23.3865 25.0004 23.3865 28.5723V32.4591H42.0355C46.5168 29.4313 49.1929 24.429 49.1929 18.9888ZM11.5181 24.6855H16.9348C19.069 24.6855 20.8058 26.4294 20.8058 28.5723V32.4591H17.6406C14.7929 30.5338 12.6806 27.8144 11.5181 24.6855ZM44.6768 35.0502H14.9994C13.9323 35.0502 13.0639 35.9222 13.0639 36.9936C13.0639 38.0651 13.9323 38.937 14.9994 38.937H44.6768C45.7439 38.937 46.6123 38.0651 46.6123 36.9936C46.6123 35.9222 45.7439 35.0502 44.6768 35.0502ZM7.90258 58.5224V50.4457C7.90258 48.7705 8.96581 47.2884 10.549 46.7572L13.0639 45.9164V63.0531L10.549 62.2123C8.96581 61.6798 7.90258 60.1976 7.90258 58.5224ZM15.6445 42.8238V63.5532C15.6445 67.1251 18.5387 70.0312 22.0961 70.0312H37.58C41.1374 70.0312 44.0316 67.1251 44.0316 63.5532V42.8238C44.0316 42.1086 43.4523 41.5282 42.7413 41.5282H16.9348C16.2239 41.5282 15.6445 42.1086 15.6445 42.8238ZM67.2574 77.8047H5.32193C3.89871 77.8047 2.74129 76.6425 2.74129 75.2135C2.74129 73.7845 3.89871 72.6223 5.32193 72.6223H22.0961H37.58H62.0961V51.8929V44.1194V33.7547V25.9811V15.6164H67.2574V77.8047ZM60.109 13.0252H67.2574C70.1039 13.0252 72.4187 10.7009 72.4187 7.84287C72.4187 4.9848 70.1039 2.66051 67.2574 2.66051H60.109C61.34 4.03773 62.0961 5.85026 62.0961 7.84287C62.0961 9.83549 61.34 11.648 60.109 13.0252Z" fill="#151D28"/>
<rect x="38.8704" y="44.1194" width="2.58065" height="2.59118" fill="#333333"/>
<rect x="18.2252" y="44.1194" width="18.0645" height="2.59118" fill="#333333"/>
</svg>
