<svg width="126" height="41" viewBox="0 0 126 41" fill="none" xmlns="http://www.w3.org/2000/svg">
<g clip-path="url(#clip0_19:398)">
<path d="M18.478 39.306V41H17.967V39.306L16.007 36.1H16.56L18.24 38.851L19.92 36.1H20.438L18.478 39.306ZM22.3994 41.035C22.0447 41.035 21.725 40.9557 21.4404 40.797C21.1557 40.6337 20.9317 40.4097 20.7684 40.125C20.605 39.8403 20.5234 39.5183 20.5234 39.159C20.5234 38.7997 20.605 38.4777 20.7684 38.193C20.9317 37.9083 21.1557 37.6867 21.4404 37.528C21.725 37.3693 22.0447 37.29 22.3994 37.29C22.754 37.29 23.0737 37.3693 23.3584 37.528C23.643 37.6867 23.8647 37.9083 24.0234 38.193C24.1867 38.4777 24.2684 38.7997 24.2684 39.159C24.2684 39.5183 24.1867 39.8403 24.0234 40.125C23.8647 40.4097 23.643 40.6337 23.3584 40.797C23.0737 40.9557 22.754 41.035 22.3994 41.035ZM22.3994 40.594C22.6607 40.594 22.894 40.5357 23.0994 40.419C23.3094 40.2977 23.4727 40.1273 23.5894 39.908C23.706 39.6887 23.7644 39.439 23.7644 39.159C23.7644 38.879 23.706 38.6293 23.5894 38.41C23.4727 38.1907 23.3094 38.0227 23.0994 37.906C22.894 37.7847 22.6607 37.724 22.3994 37.724C22.138 37.724 21.9024 37.7847 21.6924 37.906C21.487 38.0227 21.3237 38.1907 21.2024 38.41C21.0857 38.6293 21.0274 38.879 21.0274 39.159C21.0274 39.439 21.0857 39.6887 21.2024 39.908C21.3237 40.1273 21.487 40.2977 21.6924 40.419C21.9024 40.5357 22.138 40.594 22.3994 40.594ZM28.776 37.318V41H28.3V40.328C28.1694 40.552 27.9897 40.727 27.761 40.853C27.5324 40.9743 27.271 41.035 26.977 41.035C26.4964 41.035 26.116 40.902 25.836 40.636C25.5607 40.3653 25.423 39.971 25.423 39.453V37.318H25.92V39.404C25.92 39.7913 26.0157 40.0853 26.207 40.286C26.3984 40.4867 26.6714 40.587 27.026 40.587C27.4134 40.587 27.719 40.4703 27.943 40.237C28.167 39.999 28.279 39.67 28.279 39.25V37.318H28.776ZM30.819 38.039C30.9357 37.7917 31.1083 37.605 31.337 37.479C31.5703 37.353 31.8573 37.29 32.198 37.29V37.773L32.079 37.766C31.6917 37.766 31.3883 37.885 31.169 38.123C30.9497 38.361 30.84 38.6947 30.84 39.124V41H30.343V37.318H30.819V38.039ZM37.2316 37.29C37.5769 37.29 37.8896 37.3693 38.1696 37.528C38.4496 37.682 38.6689 37.9013 38.8276 38.186C38.9863 38.4707 39.0656 38.795 39.0656 39.159C39.0656 39.5277 38.9863 39.8543 38.8276 40.139C38.6689 40.4237 38.4496 40.6453 38.1696 40.804C37.8943 40.958 37.5816 41.035 37.2316 41.035C36.9329 41.035 36.6623 40.9743 36.4196 40.853C36.1816 40.727 35.9856 40.545 35.8316 40.307V42.358H35.3346V37.318H35.8106V38.046C35.9599 37.8033 36.1559 37.6167 36.3986 37.486C36.6459 37.3553 36.9236 37.29 37.2316 37.29ZM37.1966 40.594C37.4533 40.594 37.6866 40.5357 37.8966 40.419C38.1066 40.2977 38.2699 40.1273 38.3866 39.908C38.5079 39.6887 38.5686 39.439 38.5686 39.159C38.5686 38.879 38.5079 38.6317 38.3866 38.417C38.2699 38.1977 38.1066 38.0273 37.8966 37.906C37.6866 37.7847 37.4533 37.724 37.1966 37.724C36.9353 37.724 36.6996 37.7847 36.4896 37.906C36.2843 38.0273 36.1209 38.1977 35.9996 38.417C35.8829 38.6317 35.8246 38.879 35.8246 39.159C35.8246 39.439 35.8829 39.6887 35.9996 39.908C36.1209 40.1273 36.2843 40.2977 36.4896 40.419C36.6996 40.5357 36.9353 40.594 37.1966 40.594ZM40.7297 38.039C40.8464 37.7917 41.0191 37.605 41.2477 37.479C41.4811 37.353 41.7681 37.29 42.1087 37.29V37.773L41.9897 37.766C41.6024 37.766 41.2991 37.885 41.0797 38.123C40.8604 38.361 40.7507 38.6947 40.7507 39.124V41H40.2537V37.318H40.7297V38.039ZM46.3554 39.313H43.2754C43.3034 39.6957 43.4504 40.006 43.7164 40.244C43.9824 40.4773 44.3184 40.594 44.7244 40.594C44.9531 40.594 45.1631 40.5543 45.3544 40.475C45.5458 40.391 45.7114 40.2697 45.8514 40.111L46.1314 40.433C45.9681 40.629 45.7628 40.7783 45.5154 40.881C45.2728 40.9837 45.0044 41.035 44.7104 41.035C44.3324 41.035 43.9964 40.9557 43.7024 40.797C43.4131 40.6337 43.1868 40.4097 43.0234 40.125C42.8601 39.8403 42.7784 39.5183 42.7784 39.159C42.7784 38.7997 42.8554 38.4777 43.0094 38.193C43.1681 37.9083 43.3828 37.6867 43.6534 37.528C43.9288 37.3693 44.2368 37.29 44.5774 37.29C44.9181 37.29 45.2238 37.3693 45.4944 37.528C45.7651 37.6867 45.9774 37.9083 46.1314 38.193C46.2854 38.473 46.3624 38.795 46.3624 39.159L46.3554 39.313ZM44.5774 37.717C44.2228 37.717 43.9241 37.8313 43.6814 38.06C43.4434 38.284 43.3081 38.578 43.2754 38.942H45.8864C45.8538 38.578 45.7161 38.284 45.4734 38.06C45.2354 37.8313 44.9368 37.717 44.5774 37.717ZM48.5361 41.035C48.2374 41.035 47.9504 40.993 47.6751 40.909C47.4044 40.8203 47.1921 40.7107 47.0381 40.58L47.2621 40.188C47.4161 40.3093 47.6097 40.4097 47.8431 40.489C48.0764 40.5637 48.3191 40.601 48.5711 40.601C48.9071 40.601 49.1544 40.5497 49.3131 40.447C49.4764 40.3397 49.5581 40.1903 49.5581 39.999C49.5581 39.8637 49.5137 39.7587 49.4251 39.684C49.3364 39.6047 49.2244 39.5463 49.0891 39.509C48.9537 39.467 48.7741 39.4273 48.5501 39.39C48.2514 39.334 48.0111 39.278 47.8291 39.222C47.6471 39.1613 47.4907 39.061 47.3601 38.921C47.2341 38.781 47.1711 38.5873 47.1711 38.34C47.1711 38.032 47.2994 37.78 47.5561 37.584C47.8127 37.388 48.1697 37.29 48.6271 37.29C48.8651 37.29 49.1031 37.3227 49.3411 37.388C49.5791 37.4487 49.7751 37.5303 49.9291 37.633L49.7121 38.032C49.4087 37.822 49.0471 37.717 48.6271 37.717C48.3097 37.717 48.0694 37.773 47.9061 37.885C47.7474 37.997 47.6681 38.144 47.6681 38.326C47.6681 38.466 47.7124 38.578 47.8011 38.662C47.8944 38.746 48.0087 38.809 48.1441 38.851C48.2794 38.8883 48.4661 38.928 48.7041 38.97C48.9981 39.026 49.2337 39.082 49.4111 39.138C49.5884 39.194 49.7401 39.2897 49.8661 39.425C49.9921 39.5603 50.0551 39.747 50.0551 39.985C50.0551 40.307 49.9197 40.5637 49.6491 40.755C49.3831 40.9417 49.0121 41.035 48.5361 41.035ZM52.6539 41.035C52.2992 41.035 51.9795 40.9557 51.6949 40.797C51.4102 40.6337 51.1862 40.4097 51.0229 40.125C50.8595 39.8403 50.7779 39.5183 50.7779 39.159C50.7779 38.7997 50.8595 38.4777 51.0229 38.193C51.1862 37.9083 51.4102 37.6867 51.6949 37.528C51.9795 37.3693 52.2992 37.29 52.6539 37.29C53.0085 37.29 53.3282 37.3693 53.6129 37.528C53.8975 37.6867 54.1192 37.9083 54.2779 38.193C54.4412 38.4777 54.5229 38.7997 54.5229 39.159C54.5229 39.5183 54.4412 39.8403 54.2779 40.125C54.1192 40.4097 53.8975 40.6337 53.6129 40.797C53.3282 40.9557 53.0085 41.035 52.6539 41.035ZM52.6539 40.594C52.9152 40.594 53.1485 40.5357 53.3539 40.419C53.5639 40.2977 53.7272 40.1273 53.8439 39.908C53.9605 39.6887 54.0189 39.439 54.0189 39.159C54.0189 38.879 53.9605 38.6293 53.8439 38.41C53.7272 38.1907 53.5639 38.0227 53.3539 37.906C53.1485 37.7847 52.9152 37.724 52.6539 37.724C52.3925 37.724 52.1569 37.7847 51.9469 37.906C51.7415 38.0227 51.5782 38.1907 51.4569 38.41C51.3402 38.6293 51.2819 38.879 51.2819 39.159C51.2819 39.439 51.3402 39.6887 51.4569 39.908C51.5782 40.1273 51.7415 40.2977 51.9469 40.419C52.1569 40.5357 52.3925 40.594 52.6539 40.594ZM57.5885 37.29C58.0505 37.29 58.4169 37.4253 58.6875 37.696C58.9629 37.962 59.1005 38.3517 59.1005 38.865V41H58.6035V38.914C58.6035 38.5313 58.5079 38.2397 58.3165 38.039C58.1252 37.8383 57.8522 37.738 57.4975 37.738C57.1009 37.738 56.7859 37.857 56.5525 38.095C56.3239 38.3283 56.2095 38.6527 56.2095 39.068V41H55.7125V37.318H56.1885V37.997C56.3239 37.773 56.5105 37.6003 56.7485 37.479C56.9912 37.353 57.2712 37.29 57.5885 37.29ZM61.9128 37.29C62.3935 37.29 62.7622 37.4113 63.0188 37.654C63.2755 37.892 63.4038 38.2467 63.4038 38.718V41H62.9278V40.426C62.8158 40.6173 62.6502 40.7667 62.4308 40.874C62.2162 40.9813 61.9595 41.035 61.6608 41.035C61.2502 41.035 60.9235 40.937 60.6808 40.741C60.4382 40.545 60.3168 40.286 60.3168 39.964C60.3168 39.6513 60.4288 39.3993 60.6528 39.208C60.8815 39.0167 61.2432 38.921 61.7378 38.921H62.9068V38.697C62.9068 38.3797 62.8182 38.1393 62.6408 37.976C62.4635 37.808 62.2045 37.724 61.8638 37.724C61.6305 37.724 61.4065 37.7637 61.1918 37.843C60.9772 37.9177 60.7928 38.0227 60.6388 38.158L60.4148 37.787C60.6015 37.6283 60.8255 37.507 61.0868 37.423C61.3482 37.3343 61.6235 37.29 61.9128 37.29ZM61.7378 40.643C62.0178 40.643 62.2582 40.58 62.4588 40.454C62.6595 40.3233 62.8088 40.1367 62.9068 39.894V39.292H61.7518C61.1218 39.292 60.8068 39.5113 60.8068 39.95C60.8068 40.1647 60.8885 40.335 61.0518 40.461C61.2152 40.5823 61.4438 40.643 61.7378 40.643ZM64.9287 35.806H65.4257V41H64.9287V35.806ZM66.9836 35.806H67.4806V41H66.9836V35.806ZM71.6355 40.587V41H68.6395V40.671L70.9565 37.738H68.6815V37.318H71.5935V37.647L69.2765 40.587H71.6355ZM75.9332 39.313H72.8532C72.8812 39.6957 73.0282 40.006 73.2942 40.244C73.5602 40.4773 73.8962 40.594 74.3022 40.594C74.5308 40.594 74.7408 40.5543 74.9322 40.475C75.1235 40.391 75.2892 40.2697 75.4292 40.111L75.7092 40.433C75.5458 40.629 75.3405 40.7783 75.0932 40.881C74.8505 40.9837 74.5822 41.035 74.2882 41.035C73.9102 41.035 73.5742 40.9557 73.2802 40.797C72.9908 40.6337 72.7645 40.4097 72.6012 40.125C72.4378 39.8403 72.3562 39.5183 72.3562 39.159C72.3562 38.7997 72.4332 38.4777 72.5872 38.193C72.7458 37.9083 72.9605 37.6867 73.2312 37.528C73.5065 37.3693 73.8145 37.29 74.1552 37.29C74.4958 37.29 74.8015 37.3693 75.0722 37.528C75.3428 37.6867 75.5552 37.9083 75.7092 38.193C75.8632 38.473 75.9402 38.795 75.9402 39.159L75.9332 39.313ZM74.1552 37.717C73.8005 37.717 73.5018 37.8313 73.2592 38.06C73.0212 38.284 72.8858 38.578 72.8532 38.942H75.4642C75.4315 38.578 75.2938 38.284 75.0512 38.06C74.8132 37.8313 74.5145 37.717 74.1552 37.717ZM80.4868 35.806V41H80.0108V40.272C79.8615 40.5193 79.6631 40.7083 79.4158 40.839C79.1731 40.9697 78.8978 41.035 78.5898 41.035C78.2445 41.035 77.9318 40.9557 77.6518 40.797C77.3718 40.6383 77.1525 40.4167 76.9938 40.132C76.8351 39.8473 76.7558 39.523 76.7558 39.159C76.7558 38.795 76.8351 38.4707 76.9938 38.186C77.1525 37.9013 77.3718 37.682 77.6518 37.528C77.9318 37.3693 78.2445 37.29 78.5898 37.29C78.8885 37.29 79.1568 37.353 79.3948 37.479C79.6375 37.6003 79.8358 37.78 79.9898 38.018V35.806H80.4868ZM78.6318 40.594C78.8885 40.594 79.1195 40.5357 79.3248 40.419C79.5348 40.2977 79.6981 40.1273 79.8148 39.908C79.9361 39.6887 79.9968 39.439 79.9968 39.159C79.9968 38.879 79.9361 38.6293 79.8148 38.41C79.6981 38.1907 79.5348 38.0227 79.3248 37.906C79.1195 37.7847 78.8885 37.724 78.6318 37.724C78.3705 37.724 78.1348 37.7847 77.9248 37.906C77.7195 38.0227 77.5561 38.1907 77.4348 38.41C77.3181 38.6293 77.2598 38.879 77.2598 39.159C77.2598 39.439 77.3181 39.6887 77.4348 39.908C77.5561 40.1273 77.7195 40.2977 77.9248 40.419C78.1348 40.5357 78.3705 40.594 78.6318 40.594ZM85.579 41.035C85.215 41.035 84.8883 40.9557 84.599 40.797C84.3143 40.6383 84.0903 40.4167 83.927 40.132C83.7636 39.8427 83.682 39.5183 83.682 39.159C83.682 38.7997 83.7636 38.4777 83.927 38.193C84.0903 37.9083 84.3143 37.6867 84.599 37.528C84.8883 37.3693 85.215 37.29 85.579 37.29C85.8963 37.29 86.1786 37.353 86.426 37.479C86.678 37.6003 86.8763 37.78 87.021 38.018L86.65 38.27C86.5286 38.088 86.3746 37.9527 86.188 37.864C86.0013 37.7707 85.7983 37.724 85.579 37.724C85.313 37.724 85.0726 37.7847 84.858 37.906C84.648 38.0227 84.4823 38.1907 84.361 38.41C84.2443 38.6293 84.186 38.879 84.186 39.159C84.186 39.4437 84.2443 39.6957 84.361 39.915C84.4823 40.1297 84.648 40.2977 84.858 40.419C85.0726 40.5357 85.313 40.594 85.579 40.594C85.7983 40.594 86.0013 40.5497 86.188 40.461C86.3746 40.3723 86.5286 40.237 86.65 40.055L87.021 40.307C86.8763 40.545 86.678 40.727 86.426 40.853C86.174 40.9743 85.8916 41.035 85.579 41.035ZM89.6158 41.035C89.2611 41.035 88.9414 40.9557 88.6568 40.797C88.3721 40.6337 88.1481 40.4097 87.9848 40.125C87.8214 39.8403 87.7398 39.5183 87.7398 39.159C87.7398 38.7997 87.8214 38.4777 87.9848 38.193C88.1481 37.9083 88.3721 37.6867 88.6568 37.528C88.9414 37.3693 89.2611 37.29 89.6158 37.29C89.9704 37.29 90.2901 37.3693 90.5748 37.528C90.8594 37.6867 91.0811 37.9083 91.2398 38.193C91.4031 38.4777 91.4848 38.7997 91.4848 39.159C91.4848 39.5183 91.4031 39.8403 91.2398 40.125C91.0811 40.4097 90.8594 40.6337 90.5748 40.797C90.2901 40.9557 89.9704 41.035 89.6158 41.035ZM89.6158 40.594C89.8771 40.594 90.1104 40.5357 90.3158 40.419C90.5258 40.2977 90.6891 40.1273 90.8058 39.908C90.9224 39.6887 90.9808 39.439 90.9808 39.159C90.9808 38.879 90.9224 38.6293 90.8058 38.41C90.6891 38.1907 90.5258 38.0227 90.3158 37.906C90.1104 37.7847 89.8771 37.724 89.6158 37.724C89.3544 37.724 89.1188 37.7847 88.9088 37.906C88.7034 38.0227 88.5401 38.1907 88.4188 38.41C88.3021 38.6293 88.2438 38.879 88.2438 39.159C88.2438 39.439 88.3021 39.6887 88.4188 39.908C88.5401 40.1273 88.7034 40.2977 88.9088 40.419C89.1188 40.5357 89.3544 40.594 89.6158 40.594ZM93.8924 36.191C93.6778 36.191 93.5144 36.2493 93.4024 36.366C93.2951 36.4827 93.2414 36.6553 93.2414 36.884V37.318H94.3754V37.738H93.2554V41H92.7584V37.738H92.1004V37.318H92.7584V36.863C92.7584 36.527 92.8541 36.261 93.0454 36.065C93.2414 35.869 93.5168 35.771 93.8714 35.771C94.0114 35.771 94.1468 35.792 94.2774 35.834C94.4081 35.8713 94.5178 35.9273 94.6064 36.002L94.4384 36.373C94.2938 36.2517 94.1118 36.191 93.8924 36.191ZM96.4395 36.191C96.2249 36.191 96.0615 36.2493 95.9495 36.366C95.8422 36.4827 95.7885 36.6553 95.7885 36.884V37.318H96.9225V37.738H95.8025V41H95.3055V37.738H94.6475V37.318H95.3055V36.863C95.3055 36.527 95.4012 36.261 95.5925 36.065C95.7885 35.869 96.0639 35.771 96.4185 35.771C96.5585 35.771 96.6939 35.792 96.8245 35.834C96.9552 35.8713 97.0649 35.9273 97.1535 36.002L96.9855 36.373C96.8409 36.2517 96.6589 36.191 96.4395 36.191ZM100.913 39.313H97.8331C97.8611 39.6957 98.0081 40.006 98.2741 40.244C98.5401 40.4773 98.8761 40.594 99.2821 40.594C99.5107 40.594 99.7207 40.5543 99.9121 40.475C100.103 40.391 100.269 40.2697 100.409 40.111L100.689 40.433C100.526 40.629 100.32 40.7783 100.073 40.881C99.8304 40.9837 99.5621 41.035 99.2681 41.035C98.8901 41.035 98.5541 40.9557 98.2601 40.797C97.9707 40.6337 97.7444 40.4097 97.5811 40.125C97.4177 39.8403 97.3361 39.5183 97.3361 39.159C97.3361 38.7997 97.4131 38.4777 97.5671 38.193C97.7257 37.9083 97.9404 37.6867 98.2111 37.528C98.4864 37.3693 98.7944 37.29 99.1351 37.29C99.4757 37.29 99.7814 37.3693 100.052 37.528C100.323 37.6867 100.535 37.9083 100.689 38.193C100.843 38.473 100.92 38.795 100.92 39.159L100.913 39.313ZM99.1351 37.717C98.7804 37.717 98.4817 37.8313 98.2391 38.06C98.0011 38.284 97.8657 38.578 97.8331 38.942H100.444C100.411 38.578 100.274 38.284 100.031 38.06C99.7931 37.8313 99.4944 37.717 99.1351 37.717ZM105.313 39.313H102.233C102.261 39.6957 102.408 40.006 102.674 40.244C102.94 40.4773 103.276 40.594 103.682 40.594C103.91 40.594 104.12 40.5543 104.312 40.475C104.503 40.391 104.669 40.2697 104.809 40.111L105.089 40.433C104.925 40.629 104.72 40.7783 104.473 40.881C104.23 40.9837 103.962 41.035 103.668 41.035C103.29 41.035 102.954 40.9557 102.66 40.797C102.37 40.6337 102.144 40.4097 101.981 40.125C101.817 39.8403 101.736 39.5183 101.736 39.159C101.736 38.7997 101.813 38.4777 101.967 38.193C102.125 37.9083 102.34 37.6867 102.611 37.528C102.886 37.3693 103.194 37.29 103.535 37.29C103.875 37.29 104.181 37.3693 104.452 37.528C104.722 37.6867 104.935 37.9083 105.089 38.193C105.243 38.473 105.32 38.795 105.32 39.159L105.313 39.313ZM103.535 37.717C103.18 37.717 102.881 37.8313 102.639 38.06C102.401 38.284 102.265 38.578 102.233 38.942H104.844C104.811 38.578 104.673 38.284 104.431 38.06C104.193 37.8313 103.894 37.717 103.535 37.717Z" fill="#151D28" fill-opacity="0.9"/>
<path fill-rule="evenodd" clip-rule="evenodd" d="M109.324 21.7285C108.579 21.906 107.8 22 107 22C101.477 22 97.0001 17.5228 97.0001 12C97.0001 7.71682 99.6929 4.06258 103.478 2.63791C103.464 6.16502 105.078 9.03979 106.556 11.6728C106.669 11.8728 106.78 12.0714 106.89 12.2688C108.565 15.2767 109.951 18.0873 109.324 21.7285ZM111.436 20.9648C111.755 17.1061 110.176 14.0586 108.637 11.2957C108.544 11.1282 108.451 10.962 108.359 10.7968C106.742 7.90481 105.302 5.3299 105.495 2.11253C105.986 2.03842 106.489 2 107 2C112.523 2 117 6.47715 117 12C117 15.9297 114.733 19.33 111.436 20.9648ZM119 12C119 18.6274 113.628 24 107 24C100.373 24 95.0001 18.6274 95.0001 12C95.0001 5.37258 100.373 0 107 0C113.628 0 119 5.37258 119 12Z" fill="#151D28"/>
<path d="M64 0L71.5278 21.6423C71.6835 22.0899 72.3165 22.0899 72.4722 21.6423L80 0" stroke="#151D28" stroke-width="2"/>
<path d="M40.9689 23C35.6149 21.6652 31.5993 17.6608 31.1496 13.6563M31.1496 13.6563C29.818 6.25578 37.5295 -1.81831 48.102 1.96325C48.4829 2.09949 48.5309 2.60862 48.1895 2.82562L31.1496 13.6563Z" stroke="#151D28" stroke-width="2"/>
<path fill-rule="evenodd" clip-rule="evenodd" d="M7 0V22H9V5.4148C10.2078 4.22636 11.1782 3.49097 12.1799 2.99862C13.2567 2.46936 14.4384 2.18699 16.1147 1.9934L15.8853 0.00660217C14.0997 0.21281 12.6641 0.532103 11.2977 1.20373C10.5071 1.59231 9.76292 2.08739 9 2.71512V0H7Z" fill="#151D28"/>
</g>
<defs>
<clipPath id="clip0_19:398">
<rect width="126" height="41" fill="white"/>
</clipPath>
</defs>
</svg>
